<svg xmlns="http://www.w3.org/2000/svg" viewBox="0 0 24 24"><path fill="#fff" d="M15 3.3a1 1 0 0 0-1 1c0 .44.3.84.72.94A7 7 0 0 1 20 12a6.99 6.99 0 0 1-5.28 6.76c-.43.1-.72.5-.72.95a1 1 0 0 0 1.23.97A8.98 8.98 0 0 0 22 12a8.98 8.98 0 0 0-6.77-8.68.97.97 0 0 0-.24-.03zm-3.9 1.12a.98.98 0 0 0-.8.29L6 9H4a2 2 0 0 0-2 2v2c0 1.1.9 2 2 2h2l4.3 4.3a1 1 0 0 0 1.7-.71V5.4a1 1 0 0 0-.9-1zm3.86 3.12a1 1 0 0 0-.96 1v.02c0 .36.19.68.5.85.91.51 1.5 1.48 1.5 2.59 0 1.11-.59 2.08-1.5 2.58-.31.17-.5.5-.5.86v.02c0 .75.81 1.25 1.47.88a4.99 4.99 0 0 0 0-8.68.94.94 0 0 0-.5-.12z"/></svg>
